<?xml version="1.0" encoding="utf-8"?>
<!-- Generator: Adobe Illustrator 23.0.2, SVG Export Plug-In . SVG Version: 6.00 Build 0)  -->
<svg version="1.1" id="圖層_1" xmlns="http://www.w3.org/2000/svg" xmlns:xlink="http://www.w3.org/1999/xlink" x="0px" y="0px"
	 viewBox="0 0 488 333.9" style="enable-background:new 0 0 488 333.9;" xml:space="preserve">
<style type="text/css">
	.st0{fill:#070707;}
	.st1{fill-rule:evenodd;clip-rule:evenodd;fill:#070707;}
</style>
<g>
	<g transform="translate(176.399816, 132.067763)">
	</g>
</g>
<g>
	<g>
		<g transform="translate(49.689452, 206.53379)">
			<g>
				<path class="st0" d="M-49.7-194.5v2.1c13.6,0,16.8,3.4,21.5,12.3L9.9-99.4v38.1c0,11.9-1.7,13.6-14,13.6v2.1H44v-2.1
					c-12.3,0-13.8-1.7-13.8-13.6l0.2-37.4l37.2-79.1c6-11.1,8.5-14.5,22.8-14.5v-2.1H47.7v2.1c13,0,18.5,2.8,18.5,8.7
					c0,2.6-1.1,5.7-3,9.6l-33,70.4l-34.7-72.8c-1.5-3-2.1-5.5-2.1-7.7c0-5.5,5.1-8.3,17.7-8.3v-2.1H-49.7z"/>
			</g>
		</g>
	</g>
	<g>
		<g transform="translate(129.347303, 206.53379)">
			<g>
				<path class="st0" d="M62.7-154.1c-24,0-33.6,11.1-33.6,23.8c0,6,3.4,10.2,10.6,10.2s10.4-4.5,10.4-10.2
					c0-6.2-3.6-10.6-10.4-10.6c-2.8,0-5.5,1.3-7.2,3.4c3.2-8.3,12.1-14.5,30.2-14.5c19.6,0,30.4,10,30.4,28.3v17
					c-48.5,0.4-70.4,10.8-70.4,36.4c0,17.4,11.3,26.8,32.1,26.8c17.9,0,32.8-8.9,38.3-28.1v26h32.8v-2.1c-12.1,0-14-1.9-14-14V-119
					c0-13.4-5.1-23-15.3-28.7C88.5-152.4,77.2-154.1,62.7-154.1z M93.2-89.4c0,28.9-15.3,40.6-31.9,40.6C46.4-48.8,40-56.9,40-70.9
					c0-23.8,14.9-33.4,53.2-33.8V-89.4z"/>
			</g>
		</g>
	</g>
	<g>
		<g transform="translate(195.295489, 206.53379)">
			<g>
				<path class="st0" d="M173.1-61.8v-54.7c0-20.9-11.3-37.7-38.1-37.7c-19.2,0-28.5,9.1-32.3,23v-23h-2.1
					c-9.6,3.6-17.7,4.9-30.6,4.9v2.1c12.6,0,14,1.5,14,14v71.3c0,1.2,0,2.3-0.1,3.3c0.5-0.1,1.1-0.2,1.7-0.2c2.7,0,4.5,1.3,5.6,3.1
					c0.5-0.1,1-0.2,1.6-0.2c0.9,0,1.7,0.2,2.4,0.4c0.9-0.5,2.1-0.9,3.4-0.9c0.8,0,1.5,0.1,2.1,0.4c0.6-0.2,1.2-0.3,1.9-0.3
					c0.1,0,0.2,0,0.3,0c-0.2-1.6-0.2-3.4-0.2-5.6V-113c0-19.1,5.5-35.7,26.4-35.7c18.7,0,25.3,13,25.3,30v73.2H187v-2.1
					C174.9-47.7,173.1-49.6,173.1-61.8z"/>
			</g>
		</g>
	</g>
	<g>
		<g transform="translate(265.97113, 206.53379)">
			<g>
				<path class="st0" d="M212-176.2c-6.4,0-10,4.3-10,9.8s3.6,9.8,10,9.8c3.4,0,5.7-1.3,7.2-3.6c-1.7,8.5-6.6,14.5-14,16.4
					c-7.2-6.6-17.4-10.2-30.4-10.2c-26.6,0-41.9,14.9-41.9,39.6c0,13,4.3,23.2,12.1,30l-4,6.2c-5.1,7-7.4,11.7-7.4,18.3
					c0,8.7,4.5,15.1,12.1,18.1c-10.4,2.8-18.1,10.4-18.1,22.3c0,18.6,18,27.5,48.7,27.5C205.2,8,222-2.2,222-23.5
					c0-19.1-11.5-31.1-33.4-31.1h-30.8c-11.5,0-17-4.5-17-13.6c0-4.7,1.3-7.9,3.4-11.1l2.6-4c7,5.1,16.4,7.9,28.1,7.9
					c26.6,0,41.9-14.5,41.9-39.1c0-11.7-3.4-21.1-9.8-27.9c9.1-3.2,15.1-11.9,15.1-24C222-172,218.4-176.2,212-176.2z M174.8-152
					c16.2,0,25.3,11.1,25.3,37.4s-9.1,37-25.3,37s-25.1-10.6-25.1-37S158.6-152,174.8-152z M152-40.3c1.7,0.2,3.4,0.4,5.3,0.4h32.3
					c15.1,0,22.6,7.9,22.6,20.8c0,16.4-12.6,24.9-36,24.9c-24.2,0-36-8.7-36-24.9C140.3-30.1,144.6-37.5,152-40.3z"/>
			</g>
		</g>
	</g>
	<g>
		<g>
			<path class="st1" d="M298.5,246.6c-1.1,62.3,19.3,77.4,46.1,82.2c79.7-1.6,62.8-127.1-50-79c1.3-0.6,2.7-1.1,4-1.6
				C298.5,247.6,298.5,247.1,298.5,246.6z M298.3,211.6L298.3,211.6l0.1,32.1v2.8v-2.8c20.4-9.3,41-14.4,64.3-7.1
				c7.9,2.5,16.6,6.8,22.5,13.4c14.4,15.3,13.3,42.4,6.6,53.4c-19,46.4-109.4,41.5-111.1-25.7l-0.5-20.8v-0.1v0.1
				c-66.6,42.1-152.1,54.4-155.7-16.1c-0.8-15.4,16.8-33.6,18.8,3.3s33.1,43.5,60,40.5c28.9-4.4,53.3-19.2,76.8-31.7l0.1,3.9
				l-1.1-45.1l0,0c0-0.9,0-1.7,0-2.5v-63.3h19.1L298.3,211.6L298.3,211.6z M294.5,249.7c-3.6,1.6-7.4,3.3-11.2,5.2
				C287.1,253,290.8,251.3,294.5,249.7z"/>
		</g>
	</g>
	<g>
		<g transform="translate(141.776663, 132.067763)">
			<g>
				<path class="st0" d="M35.2-117.8l10.2-14.3h-3.5l-8,11.5l-8-11.5h-3.6l10.2,14.3v12.6h2.8L35.2-117.8L35.2-117.8z"/>
			</g>
		</g>
	</g>
	<g>
		<g transform="translate(158.846283, 132.067763)">
			<g>
				<path class="st0" d="M57.9-114.1v-18h-2.8v18.4c0,1.1-0.2,2-0.6,2.8c-1.1,2.2-3.4,3.3-6.7,3.3c-2.1,0-3.8-0.5-5.1-1.4
					c-1.5-1.1-2.2-2.6-2.2-4.7v-18.4h-2.8v18c0,2.9,0.9,5.2,2.8,6.9c1.8,1.6,4.2,2.4,7.2,2.4s5.3-0.8,7.2-2.4
					C57-108.8,57.9-111.1,57.9-114.1z"/>
			</g>
		</g>
	</g>
	<g>
		<g transform="translate(186.100758, 132.067763)">
			<g>
				<path class="st0" d="M81.6-103l6.3-29.1h-2.8l-4.2,19.6l-8.1-21.1l-8.1,21.1l-4.2-19.6h-2.9L64-103l8.8-23.4L81.6-103z"/>
			</g>
		</g>
	</g>
	<g>
		<g transform="translate(207.085687, 132.067763)">
			<g>
				<path class="st0" d="M93-105.1v-2.6H79.8v-9.6h12.8v-2.6H79.8v-9.6H93v-2.6H77v26.9h16V-105.1z"/>
			</g>
		</g>
	</g>
	<g>
		<g transform="translate(223.033509, 132.067763)">
			<g>
				<path class="st0" d="M92.6-105.1V-132h-2.8v26.9H92.6z"/>
			</g>
		</g>
	</g>
</g>
</svg>
