<svg xmlns="http://www.w3.org/2000/svg" version="1.1" xmlns:xlink="http://www.w3.org/1999/xlink" xmlns:svgjs="http://svgjs.dev/svgjs" width="1500" height="1500" viewBox="0 0 1500 1500"><rect width="1500" height="1500" fill="#000000"></rect><g transform="matrix(0.6666666666666666,0,0,0.6666666666666666,249.39393939393938,438.5856950067477)"><svg viewBox="0 0 396 247" data-background-color="#000000" preserveAspectRatio="xMidYMid meet" height="935" width="1500" xmlns="http://www.w3.org/2000/svg" xmlns:xlink="http://www.w3.org/1999/xlink"><g id="tight-bounds" transform="matrix(1,0,0,1,0.2400000000000091,-0.09999999999999432)"><svg viewBox="0 0 395.52 247.2" height="247.2" width="395.52"><rect width="395.52" height="247.2" fill="#ffffff" mask="url(#b026af93-fe06-462b-a85a-c3b2b1a66b94)" data-fill-palette-color="tertiary"></rect><g><svg></svg></g><g><svg viewBox="0 0 395.52 247.2" height="247.2" width="395.52"><g transform="matrix(1,0,0,1,132.7039295154185,47.215199999999996)"><svg viewBox="0 0 130.112140969163 152.7696" height="152.7696" width="130.112140969163"><g><svg viewBox="0 0 130.112140969163 152.7696" height="152.7696" width="130.112140969163"><g><svg viewBox="0 0 130.112140969163 152.7696" height="152.7696" width="130.112140969163"><g><svg viewBox="0 0 130.112140969163 152.7696" height="152.7696" width="130.112140969163"><g id="textblocktransform"><svg viewBox="0 0 130.112140969163 152.7696" height="152.7696" width="130.112140969163" id="textblock"><g><svg viewBox="0 0 130.112140969163 152.7696" height="152.7696" width="130.112140969163"><g transform="matrix(1,0,0,1,0,0)"><svg width="130.112140969163" viewBox="1.25 -33.9 29 34.05" height="152.7696" data-palette-color="url(#656f10bb-58e6-4574-8cf6-1c53fc6735c2)"></svg></g></svg></g></svg></g></svg></g></svg></g></svg></g></svg></g><g><path d="M0 123.6c0-68.262 55.338-123.6 123.6-123.6 30.402 0 58.24 10.976 79.768 29.183l-11.147 0c-19.26-14.022-42.974-22.294-68.621-22.295-64.458 0-116.712 52.254-116.712 116.712 0 64.458 52.254 116.712 116.712 116.712 25.647 0 49.361-8.272 68.621-22.295l11.147 0c-21.528 18.206-49.366 29.183-79.768 29.183-68.262 0-123.6-55.338-123.6-123.6z" fill="#ffffff" stroke="transparent" data-fill-palette-color="tertiary"></path></g></svg></g><defs></defs><mask id="a39ea5a2-50b9-434b-90d3-f271026acb27"><g id="SvgjsG1212"><svg viewBox="0 0 395.52 247.2" height="247.2" width="395.52"><g><svg></svg></g><g><svg viewBox="0 0 395.52 247.2" height="247.2" width="395.52"><g transform="matrix(1,0,0,1,132.7039295154185,47.215199999999996)"><svg viewBox="0 0 130.112140969163 152.7696" height="152.7696" width="130.112140969163"><g><svg viewBox="0 0 130.112140969163 152.7696" height="152.7696" width="130.112140969163"><g><svg viewBox="0 0 130.112140969163 152.7696" height="152.7696" width="130.112140969163"><g><svg viewBox="0 0 130.112140969163 152.7696" height="152.7696" width="130.112140969163"><g id="SvgjsG1211"><svg viewBox="0 0 130.112140969163 152.7696" height="152.7696" width="130.112140969163" id="SvgjsSvg1210"><g><svg viewBox="0 0 130.112140969163 152.7696" height="152.7696" width="130.112140969163"><g transform="matrix(1,0,0,1,0,0)"><svg width="130.112140969163" viewBox="1.25 -33.9 29 34.05" height="152.7696" data-palette-color="url(#656f10bb-58e6-4574-8cf6-1c53fc6735c2)"><path d="M13.55-13.2L18.25-13.2 18.25-8.15Q18.25-5.5 18.5-4.28 18.75-3.05 19.58-2.65 20.4-2.25 22.1-2L22.1-2Q22.25-1.55 22.33-1 22.4-0.45 22.4 0.15L22.4 0.15Q20.75 0.1 19.1 0.05 17.45 0 16.05 0L16.05 0Q14.95 0 13.63 0.03 12.3 0.05 11.13 0.05 9.95 0.05 9.25 0.1L9.25 0.1Q9.25-0.45 9.33-1 9.4-1.55 9.55-2L9.55-2Q11.35-2.15 12.2-2.53 13.05-2.9 13.3-4.03 13.55-5.15 13.55-7.5L13.55-7.5 13.55-13.2ZM25-26.55L17.85-12.2 13.95-12.2 5.25-28.9Q4.45-30.45 3.7-31.13 2.95-31.8 1.55-31.85L1.55-31.85Q1.35-32.4 1.3-32.9 1.25-33.4 1.25-33.9L1.25-33.9Q1.95-33.9 2.8-33.88 3.65-33.85 4.58-33.83 5.5-33.8 6.45-33.8L6.45-33.8Q7.4-33.8 8.68-33.8 9.95-33.8 11.18-33.83 12.4-33.85 13.15-33.9L13.15-33.9Q13.15-33.35 13.1-32.93 13.05-32.5 12.9-31.95L12.9-31.95Q10.95-31.75 10.68-30.88 10.4-30 11.5-27.85L11.5-27.85Q12.85-25.25 14.43-22 16-18.75 17.55-15.25L17.55-15.25 17.15-15.25Q18.75-18.8 20.18-21.8 21.6-24.8 22.75-27.1L22.75-27.1Q24.1-29.75 23.75-30.65 23.4-31.55 21.4-31.85L21.4-31.85Q21.25-32.4 21.15-32.88 21.05-33.35 21.05-33.9L21.05-33.9Q21.95-33.85 23.4-33.83 24.85-33.8 25.95-33.8L25.95-33.8Q27.1-33.8 28.25-33.83 29.4-33.85 30.25-33.9L30.25-33.9Q30.25-33.4 30.2-32.95 30.15-32.5 30.05-31.95L30.05-31.95Q28.7-31.6 27.5-30.35 26.3-29.1 25-26.55L25-26.55Z" opacity="1" transform="matrix(1,0,0,1,0,0)" fill="white" class="wordmark-text-0" id="SvgjsPath1209"></path></svg></g></svg></g></svg></g></svg></g></svg></g></svg></g></svg></g><g><path d="M0 123.6c0-68.262 55.338-123.6 123.6-123.6 30.402 0 58.24 10.976 79.768 29.183l-11.147 0c-19.26-14.022-42.974-22.294-68.621-22.295-64.458 0-116.712 52.254-116.712 116.712 0 64.458 52.254 116.712 116.712 116.712 25.647 0 49.361-8.272 68.621-22.295l11.147 0c-21.528 18.206-49.366 29.183-79.768 29.183-68.262 0-123.6-55.338-123.6-123.6z" fill="black" stroke="transparent"></path></g></svg></g><defs><mask></mask></defs></svg><rect width="395.52" height="247.2" fill="black" stroke="none" visibility="hidden"></rect></g></mask><linearGradient x1="0" x2="1" y1="0.578" y2="0.595" id="656f10bb-58e6-4574-8cf6-1c53fc6735c2"><stop stop-color="#6ee2f5" offset="0"></stop><stop stop-color="#6454f0" offset="1"></stop></linearGradient><rect width="395.52" height="247.2" fill="#ffffff" mask="url(#a39ea5a2-50b9-434b-90d3-f271026acb27)" data-fill-palette-color="primary"></rect><mask id="b026af93-fe06-462b-a85a-c3b2b1a66b94"><g id="SvgjsG1235"><svg viewBox="0 0 395.52 247.2" height="247.2" width="395.52"><g><svg></svg></g><g><svg viewBox="0 0 395.52 247.2" height="247.2" width="395.52"><g transform="matrix(1,0,0,1,132.7039295154185,47.215199999999996)"><svg viewBox="0 0 130.112140969163 152.7696" height="152.7696" width="130.112140969163"><g><svg viewBox="0 0 130.112140969163 152.7696" height="152.7696" width="130.112140969163"><g><svg viewBox="0 0 130.112140969163 152.7696" height="152.7696" width="130.112140969163"><g><svg viewBox="0 0 130.112140969163 152.7696" height="152.7696" width="130.112140969163"><g id="SvgjsG1234"><svg viewBox="0 0 130.112140969163 152.7696" height="152.7696" width="130.112140969163" id="SvgjsSvg1233"><g><svg viewBox="0 0 130.112140969163 152.7696" height="152.7696" width="130.112140969163"><g transform="matrix(1,0,0,1,0,0)"><svg width="130.112140969163" viewBox="1.25 -33.9 29 34.05" height="152.7696" data-palette-color="url(#656f10bb-58e6-4574-8cf6-1c53fc6735c2)"></svg></g></svg></g></svg></g></svg></g></svg></g></svg></g></svg></g><g><path d="M0 123.6c0-68.262 55.338-123.6 123.6-123.6 30.402 0 58.24 10.976 79.768 29.183l-11.147 0c-19.26-14.022-42.974-22.294-68.621-22.295-64.458 0-116.712 52.254-116.712 116.712 0 64.458 52.254 116.712 116.712 116.712 25.647 0 49.361-8.272 68.621-22.295l11.147 0c-21.528 18.206-49.366 29.183-79.768 29.183-68.262 0-123.6-55.338-123.6-123.6z" fill="white" stroke="transparent"></path></g></svg></g><defs><mask></mask></defs><mask><g id="SvgjsG1232"><svg viewBox="0 0 395.52 247.2" height="247.2" width="395.52"><g><svg></svg></g><g><svg viewBox="0 0 395.52 247.2" height="247.2" width="395.52"><g transform="matrix(1,0,0,1,132.7039295154185,47.215199999999996)"><svg viewBox="0 0 130.112140969163 152.7696" height="152.7696" width="130.112140969163"><g><svg viewBox="0 0 130.112140969163 152.7696" height="152.7696" width="130.112140969163"><g><svg viewBox="0 0 130.112140969163 152.7696" height="152.7696" width="130.112140969163"><g><svg viewBox="0 0 130.112140969163 152.7696" height="152.7696" width="130.112140969163"><g id="SvgjsG1231"><svg viewBox="0 0 130.112140969163 152.7696" height="152.7696" width="130.112140969163" id="SvgjsSvg1230"><g><svg viewBox="0 0 130.112140969163 152.7696" height="152.7696" width="130.112140969163"><g transform="matrix(1,0,0,1,0,0)"><svg width="130.112140969163" viewBox="1.25 -33.9 29 34.05" height="152.7696" data-palette-color="url(#656f10bb-58e6-4574-8cf6-1c53fc6735c2)"><path d="M13.55-13.2L18.25-13.2 18.25-8.15Q18.25-5.5 18.5-4.28 18.75-3.05 19.58-2.65 20.4-2.25 22.1-2L22.1-2Q22.25-1.55 22.33-1 22.4-0.45 22.4 0.15L22.4 0.15Q20.75 0.1 19.1 0.05 17.45 0 16.05 0L16.05 0Q14.95 0 13.63 0.03 12.3 0.05 11.13 0.05 9.95 0.05 9.25 0.1L9.25 0.1Q9.25-0.45 9.33-1 9.4-1.55 9.55-2L9.55-2Q11.35-2.15 12.2-2.53 13.05-2.9 13.3-4.03 13.55-5.15 13.55-7.5L13.55-7.5 13.55-13.2ZM25-26.55L17.85-12.2 13.95-12.2 5.25-28.9Q4.45-30.45 3.7-31.13 2.95-31.8 1.55-31.85L1.55-31.85Q1.35-32.4 1.3-32.9 1.25-33.4 1.25-33.9L1.25-33.9Q1.95-33.9 2.8-33.88 3.65-33.85 4.58-33.83 5.5-33.8 6.45-33.8L6.45-33.8Q7.4-33.8 8.68-33.8 9.95-33.8 11.18-33.83 12.4-33.85 13.15-33.9L13.15-33.9Q13.15-33.35 13.1-32.93 13.05-32.5 12.9-31.95L12.9-31.95Q10.95-31.75 10.68-30.88 10.4-30 11.5-27.85L11.5-27.85Q12.85-25.25 14.43-22 16-18.75 17.55-15.25L17.55-15.25 17.15-15.25Q18.75-18.8 20.18-21.8 21.6-24.8 22.75-27.1L22.75-27.1Q24.1-29.75 23.75-30.65 23.4-31.55 21.4-31.85L21.4-31.85Q21.25-32.4 21.15-32.88 21.05-33.35 21.05-33.9L21.05-33.9Q21.95-33.85 23.4-33.83 24.85-33.8 25.95-33.8L25.95-33.8Q27.1-33.8 28.25-33.83 29.4-33.85 30.25-33.9L30.25-33.9Q30.25-33.4 30.2-32.95 30.15-32.5 30.05-31.95L30.05-31.95Q28.7-31.6 27.5-30.35 26.3-29.1 25-26.55L25-26.55Z" opacity="1" transform="matrix(1,0,0,1,0,0)" fill="black" class="wordmark-text-0" id="SvgjsPath1229"></path></svg></g></svg></g></svg></g></svg></g></svg></g></svg></g></svg></g><g><path d="M0 123.6c0-68.262 55.338-123.6 123.6-123.6 30.402 0 58.24 10.976 79.768 29.183l-11.147 0c-19.26-14.022-42.974-22.294-68.621-22.295-64.458 0-116.712 52.254-116.712 116.712 0 64.458 52.254 116.712 116.712 116.712 25.647 0 49.361-8.272 68.621-22.295l11.147 0c-21.528 18.206-49.366 29.183-79.768 29.183-68.262 0-123.6-55.338-123.6-123.6z" fill="black" stroke="transparent"></path></g></svg></g><defs><mask></mask></defs></svg><rect width="395.52" height="247.2" fill="black" stroke="none" visibility="hidden"></rect></g></mask></svg><rect width="395.52" height="247.2" fill="black" stroke="none" visibility="hidden"></rect></g></mask><linearGradient x1="0" x2="1" y1="0.578" y2="0.595" id="085601db-68f1-47f2-9c38-a7986274d164"><stop stop-color="#6ee2f5" offset="0"></stop><stop stop-color="#6454f0" offset="1"></stop></linearGradient></svg><rect width="395.52" height="247.2" fill="none" stroke="none" visibility="hidden"></rect></g></svg></g></svg>